<?xml version="1.0" encoding="UTF-8"?>
<svg id="_Слой_1" data-name="Слой 1" xmlns="http://www.w3.org/2000/svg" version="1.1" viewBox="0 0 3200 2000">
  <defs>
    <style>
      .cls-1 {
        fill: #cce1ff;
      }

      .cls-1, .cls-2, .cls-3, .cls-4, .cls-5, .cls-6, .cls-7, .cls-8, .cls-9, .cls-10, .cls-11, .cls-12, .cls-13, .cls-14, .cls-15, .cls-16, .cls-17 {
        stroke-width: 0px;
      }

      .cls-2 {
        fill: #ea6a60;
      }

      .cls-3 {
        fill: #3c489e;
      }

      .cls-4 {
        fill: #bdd7fd;
      }

      .cls-18 {
        opacity: .5;
      }

      .cls-5 {
        fill: #a2c2dd;
      }

      .cls-6 {
        fill: #882e53;
      }

      .cls-7 {
        opacity: .3;
      }

      .cls-7, .cls-8 {
        fill: #233862;
      }

      .cls-9 {
        fill: #172944;
      }

      .cls-10 {
        fill: #afcdfb;
      }

      .cls-11 {
        fill: #2b478b;
      }

      .cls-12 {
        fill: #dfebfd;
      }

      .cls-13 {
        fill: #98baf4;
      }

      .cls-14 {
        fill: #fff;
      }

      .cls-15 {
        fill: #edf4ff;
      }

      .cls-16 {
        fill: #2e3552;
      }

      .cls-17 {
        fill: #a8302d;
      }
    </style>
  </defs>
  <rect class="cls-6" x="1649.86" y="518.96" width="790.2" height="973.29"/>
  <rect class="cls-15" x="1728.68" y="566.56" width="711.39" height="106.02"/>
  <rect class="cls-14" x="1142.89" y="741.15" width="892.44" height="754.44"/>
  <rect class="cls-3" x="1120.83" y="713.74" width="928.47" height="27.41"/>
  <rect class="cls-3" x="1633.93" y="505.26" width="820.81" height="27.41"/>
  <rect class="cls-3" x="1142.89" y="809.34" width="577.42" height="140.23"/>
  <rect class="cls-6" x="604.24" y="830.53" width="538.65" height="298.76"/>
  <rect class="cls-6" x="604.24" y="1191.45" width="538.65" height="298.76"/>
  <rect class="cls-3" x="678.9" y="1129.29" width="464" height="62.16"/>
  <g>
    <path class="cls-14" d="M1221.44,929.82c-13.5,0-26.19-5.26-35.74-14.8-9.55-9.54-14.8-22.24-14.8-35.74s5.26-26.19,14.8-35.74c9.55-9.54,22.24-14.8,35.74-14.8s26.19,5.26,35.74,14.8c9.55,9.55,14.8,22.24,14.8,35.74s-5.26,26.19-14.8,35.74c-9.55,9.55-22.24,14.8-35.74,14.8ZM1221.44,833.4c-12.26,0-23.78,4.77-32.45,13.44-8.67,8.67-13.44,20.19-13.44,32.45s4.77,23.78,13.44,32.45c8.67,8.67,20.19,13.44,32.45,13.44s23.78-4.77,32.45-13.44c8.67-8.67,13.44-20.19,13.44-32.45s-4.77-23.78-13.44-32.45c-8.67-8.67-20.19-13.44-32.45-13.44Z"/>
    <polygon class="cls-14" points="1254.08 871.04 1229.69 871.04 1229.69 846.64 1213.2 846.64 1213.2 871.04 1188.8 871.04 1188.8 887.53 1213.2 887.53 1213.2 911.93 1229.69 911.93 1229.69 887.53 1254.08 887.53 1254.08 871.04"/>
  </g>
  <g>
    <path class="cls-14" d="M1312.07,855.07h10.73v19.3h19.79v-19.3h10.73v48.77h-10.73v-19.58h-19.79v19.58h-10.73v-48.77Z"/>
    <path class="cls-14" d="M1362.86,879.46c0-13.87,10.94-25.22,25.99-25.22s25.85,11.22,25.85,25.22-10.94,25.22-25.99,25.22-25.85-11.22-25.85-25.22ZM1403.49,879.46c0-8.36-6.13-15.33-14.77-15.33s-14.63,6.83-14.63,15.33,6.13,15.33,14.77,15.33,14.63-6.83,14.63-15.33Z"/>
    <path class="cls-14" d="M1420.56,896.74l6.34-7.59c4.39,3.62,8.99,5.92,14.56,5.92,4.39,0,7.04-1.74,7.04-4.74,0-2.72-1.67-4.11-9.82-6.2-9.83-2.51-16.17-5.23-16.17-15.05,0-8.85,7.11-14.7,17.07-14.7,7.11,0,13.17,2.23,18.12,6.2l-5.57,8.08c-4.32-3-8.57-4.81-12.68-4.81s-6.27,1.88-6.27,4.39c0,3.21,2.09,4.25,10.52,6.41,9.89,2.58,15.47,6.13,15.47,14.77,0,9.68-7.39,15.12-17.91,15.12-7.39,0-14.84-2.58-20.69-7.8Z"/>
    <path class="cls-14" d="M1468.5,855.07h19.93c11.64,0,18.67,6.9,18.67,17,0,11.29-8.78,17.14-19.72,17.14h-8.15v14.63h-10.73v-48.77ZM1487.73,879.67c5.36,0,8.5-3.21,8.5-7.53,0-4.81-3.34-7.39-8.71-7.39h-8.29v14.91h8.5Z"/>
    <path class="cls-14" d="M1515.53,855.07h10.73v48.77h-10.73v-48.77Z"/>
    <path class="cls-14" d="M1549.82,864.96h-14.84v-9.89h40.41v9.89h-14.84v38.88h-10.73v-38.88Z"/>
    <path class="cls-14" d="M1594.06,854.72h9.89l20.9,49.12h-11.22l-4.46-10.94h-20.62l-4.46,10.94h-10.94l20.9-49.12ZM1605.35,883.43l-6.48-15.82-6.48,15.82h12.96Z"/>
    <path class="cls-14" d="M1632.39,855.07h10.73v39.02h24.32v9.75h-35.05v-48.77Z"/>
  </g>
  <rect class="cls-10" x="2080.19" y="1134.8" width="359.88" height="237.5"/>
  <rect class="cls-10" x="2080.19" y="785.09" width="359.88" height="237.5"/>
  <rect class="cls-3" x="1736.17" y="572.21" width="703.9" height="93.57"/>
  <polygon class="cls-12" points="1142.89 750.56 2035.34 777.48 2035.34 741.15 1142.89 741.15 1142.89 750.56"/>
  <rect class="cls-3" x="570.54" y="828.75" width="572.35" height="29.58"/>
  <g>
    <rect class="cls-13" x="1281.78" y="1160.22" width="627.1" height="327.6"/>
    <rect class="cls-14" x="1302.86" y="1183.13" width="587.86" height="305.79"/>
    <rect class="cls-10" x="1325.12" y="1202.47" width="544.53" height="70.26"/>
    <rect class="cls-10" x="1325.12" y="1291.82" width="159.23" height="195.78"/>
    <rect class="cls-10" x="1499.5" y="1291.82" width="195.77" height="195.78"/>
    <rect class="cls-10" x="1708.73" y="1291.82" width="160.92" height="195.78"/>
    <polygon class="cls-1" points="1563.64 1291.82 1695.27 1291.82 1695.27 1364.27 1671.81 1487.6 1526.4 1487.6 1563.64 1291.82"/>
    <g>
      <g>
        <rect class="cls-14" x="1525.16" y="1329.07" width="146.46" height="158.75"/>
        <rect class="cls-13" x="1532.15" y="1336.25" width="132.49" height="151.57"/>
        <rect class="cls-14" x="1595.92" y="1336.25" width="4.94" height="151.57"/>
      </g>
      <g>
        <path class="cls-14" d="M1584.12,1412.03c0-1.73,1.4-3.13,3.13-3.13s3.13,1.4,3.13,3.13-1.4,3.13-3.13,3.13-3.13-1.4-3.13-3.13Z"/>
        <path class="cls-14" d="M1606.41,1412.03c0-1.73,1.4-3.13,3.13-3.13s3.13,1.4,3.13,3.13-1.4,3.13-3.13,3.13-3.13-1.4-3.13-3.13Z"/>
      </g>
    </g>
    <polygon class="cls-1" points="1375.77 1291.82 1456.39 1291.82 1430.66 1487.6 1350.04 1487.6 1375.77 1291.82"/>
    <polygon class="cls-1" points="1468.13 1202.47 1458.89 1272.73 1378.27 1272.73 1387.51 1202.47 1468.13 1202.47"/>
    <polygon class="cls-1" points="1746.82 1291.82 1827.44 1291.82 1801.7 1487.6 1721.08 1487.6 1746.82 1291.82"/>
    <polygon class="cls-1" points="1839.18 1202.47 1829.94 1272.73 1749.32 1272.73 1758.56 1202.47 1839.18 1202.47"/>
    <polygon class="cls-1" points="1726.05 1202.47 1712.68 1272.73 1567.27 1272.73 1580.64 1202.47 1726.05 1202.47"/>
  </g>
  <polygon class="cls-1" points="1708.86 1306.24 1709.15 1306.24 1708.86 1307.81 1708.86 1306.24"/>
  <polygon class="cls-4" points="2248.39 1022.6 2129.32 1022.6 2181.41 785.1 2300.49 785.1 2248.39 1022.6"/>
  <polygon class="cls-1" points="2353.9 1372.3 2234.82 1372.3 2286.92 1134.8 2405.99 1134.8 2353.9 1372.3"/>
  <polygon class="cls-1" points="2184.55 1134.8 2132.45 1372.3 2080.19 1372.3 2080.19 1134.8 2184.55 1134.8"/>
  <polygon class="cls-1" points="2440.06 785.09 2440.06 1022.6 2309.17 1022.6 2367.3 785.09 2440.06 785.09"/>
  <rect class="cls-15" x="1908.53" y="572.21" width="9.92" height="93.57"/>
  <rect class="cls-15" x="2108.85" y="572.21" width="9.92" height="93.57"/>
  <rect class="cls-15" x="2304.21" y="572.21" width="9.92" height="93.57"/>
  <g class="cls-18">
    <g>
      <rect class="cls-13" x="667.35" y="937.76" width="59.67" height="94.19"/>
      <g>
        <path class="cls-14" d="M729.49,1034.98h-65.74v-100.26h65.74v100.26ZM669.82,1028.91h53.6v-88.12h-53.6v88.12Z"/>
        <rect class="cls-14" x="669.06" y="969.26" width="55.12" height="4.55"/>
        <rect class="cls-14" x="669.06" y="1000.6" width="55.12" height="4.55"/>
        <rect class="cls-14" x="649.3" y="982.35" width="94.63" height="4.55" transform="translate(1681.25 288.01) rotate(90)"/>
      </g>
    </g>
    <g>
      <rect class="cls-13" x="839.65" y="937.76" width="59.67" height="94.19"/>
      <g>
        <path class="cls-14" d="M901.79,1034.98h-65.74v-100.26h65.74v100.26ZM842.11,1028.91h53.6v-88.12h-53.6v88.12Z"/>
        <rect class="cls-14" x="841.36" y="969.26" width="55.12" height="4.55"/>
        <rect class="cls-14" x="841.36" y="1000.6" width="55.12" height="4.55"/>
        <rect class="cls-14" x="821.6" y="982.35" width="94.63" height="4.55" transform="translate(1853.55 115.71) rotate(90)"/>
      </g>
    </g>
    <g>
      <rect class="cls-13" x="1011.95" y="937.76" width="59.67" height="94.19"/>
      <g>
        <path class="cls-14" d="M1074.08,1034.98h-65.74v-100.26h65.74v100.26ZM1014.41,1028.91h53.6v-88.12h-53.6v88.12Z"/>
        <rect class="cls-14" x="1013.65" y="969.26" width="55.12" height="4.55"/>
        <rect class="cls-14" x="1013.65" y="1000.6" width="55.12" height="4.55"/>
        <rect class="cls-14" x="993.9" y="982.35" width="94.63" height="4.55" transform="translate(2025.84 -56.58) rotate(90)"/>
      </g>
    </g>
  </g>
  <g class="cls-18">
    <g>
      <rect class="cls-13" x="667.35" y="1260.71" width="59.67" height="94.19"/>
      <g>
        <path class="cls-14" d="M729.49,1357.93h-65.74v-100.26h65.74v100.26ZM669.82,1351.87h53.6v-88.12h-53.6v88.12Z"/>
        <rect class="cls-14" x="669.06" y="1292.21" width="55.12" height="4.55"/>
        <rect class="cls-14" x="669.06" y="1323.56" width="55.12" height="4.55"/>
        <rect class="cls-14" x="649.3" y="1305.31" width="94.63" height="4.55" transform="translate(2004.2 610.97) rotate(90)"/>
      </g>
    </g>
    <g>
      <rect class="cls-13" x="839.65" y="1260.71" width="59.67" height="94.19"/>
      <g>
        <path class="cls-14" d="M901.79,1357.93h-65.74v-100.26h65.74v100.26ZM842.11,1351.87h53.6v-88.12h-53.6v88.12Z"/>
        <rect class="cls-14" x="841.36" y="1292.21" width="55.12" height="4.55"/>
        <rect class="cls-14" x="841.36" y="1323.56" width="55.12" height="4.55"/>
        <rect class="cls-14" x="821.6" y="1305.31" width="94.63" height="4.55" transform="translate(2176.5 438.67) rotate(90)"/>
      </g>
    </g>
    <g>
      <rect class="cls-13" x="1011.95" y="1260.71" width="59.67" height="94.19"/>
      <g>
        <path class="cls-14" d="M1074.08,1357.93h-65.74v-100.26h65.74v100.26ZM1014.41,1351.87h53.6v-88.12h-53.6v88.12Z"/>
        <rect class="cls-14" x="1013.65" y="1292.21" width="55.12" height="4.55"/>
        <rect class="cls-14" x="1013.65" y="1323.56" width="55.12" height="4.55"/>
        <rect class="cls-14" x="993.9" y="1305.31" width="94.63" height="4.55" transform="translate(2348.8 266.37) rotate(90)"/>
      </g>
    </g>
  </g>
  <rect class="cls-6" x="1129.03" y="1061.13" width="932.61" height="32.82"/>
  <g>
    <g>
      <path class="cls-8" d="M2741.73,1306.98v22.23c0,1.98-.47,3.88-1.31,5.56-2.04,4.09-6.29,6.9-11.15,6.9h-3.99c-6.83,0-12.46-5.59-12.46-12.46v-22.23c0-2.34.67-4.52,1.81-6.4v-.03c2.21-3.62,6.16-6.03,10.65-6.03h3.99c6.86,0,12.46,5.63,12.46,12.46Z"/>
      <path class="cls-7" d="M2740.42,1334.77c-2.04,4.09-6.29,6.9-11.15,6.9h-3.99c-6.83,0-12.46-5.59-12.46-12.46v-22.23c0-2.34.67-4.52,1.81-6.4.23,1.37,5.53,31.88,25.78,34.19Z"/>
    </g>
    <polygon class="cls-9" points="2544.25 1469.72 2605.83 1469.72 2605.83 1407.57 2541.59 1407.57 2544.25 1469.72"/>
    <path class="cls-14" d="M2738.41,1338.35l-302.51,7.46v-159.52h198.65c18.94,0,36.28,10.6,44.91,27.45l13,25.37,45.95,99.24Z"/>
    <path class="cls-8" d="M2566.56,1459.6c0,16.87,8.7,35.48,8.7,35.48h14.73c12.94,0,23.43-15.88,23.43-35.48s-25.22-35.48-38.16-35.48-8.7,15.88-8.7,35.48Z"/>
    <path class="cls-11" d="M2551.82,1459.6c0,19.59,10.49,35.48,23.43,35.48s23.43-15.88,23.43-35.48-10.49-35.48-23.43-35.48-23.43,15.88-23.43,35.48Z"/>
    <path class="cls-10" d="M2557.9,1459.6c0,14.76,7.9,26.72,17.65,26.72s17.65-11.96,17.65-26.72-7.9-26.72-17.65-26.72-17.65,11.96-17.65,26.72Z"/>
    <path class="cls-8" d="M2735.94,1459.6c0,16.87,8.7,35.48,8.7,35.48h14.73c12.94,0,23.43-15.88,23.43-35.48s-25.22-35.48-38.16-35.48-8.7,15.88-8.7,35.48Z"/>
    <path class="cls-11" d="M2721.2,1459.6c0,19.59,10.49,35.48,23.43,35.48s23.43-15.88,23.43-35.48-10.49-35.48-23.43-35.48-23.43,15.88-23.43,35.48Z"/>
    <path class="cls-8" d="M2346.97,1459.6c0,16.87,8.7,35.48,8.7,35.48h14.73c12.94,0,23.43-15.88,23.43-35.48s-25.22-35.48-38.16-35.48-8.7,15.88-8.7,35.48Z"/>
    <path class="cls-11" d="M2332.24,1459.6c0,19.59,10.49,35.48,23.43,35.48s23.43-15.88,23.43-35.48-10.49-35.48-23.43-35.48-23.43,15.88-23.43,35.48Z"/>
    <path class="cls-14" d="M2806.13,1442.86c.03,14.83-11.99,26.85-26.79,26.85h-173.52c.5-2.91.77-5.93.77-9.04,0-22.94-13.76-41.55-30.71-41.55s-30.74,18.62-30.74,41.55c0,3.11.23,6.13.74,9.04h-101.39s-4.09-45.27-3.58-67.97c.4-19.76.4-58.46-.77-67.91,0-1.41,97.78-1.58,122.45-1.67,3.35-.03,5.36-.03,5.56-.03l.33.23.37.27c4.55,3.18,30.07,21.06,45.91,31.54,13.96,9.21,117.03,12.96,157.45,14.1,10.05.27,16.24.37,16.24.37,0,0,5.53,5.66,10.41,14.6,3.75,6.93,7.1,15.84,7.17,25.58.03,6.06.07,13.36.07,20.53.03,1.17.03,2.34.03,3.52Z"/>
    <path class="cls-13" d="M2714.02,1332.13h-135.95c-3.15,0-5.99-1.84-7.3-4.69l-33.65-74.87c-1.11-2.44.7-5.22,3.38-5.22h143.42c3.15,0,6.03,1.88,7.3,4.79l24.11,55.08,6.03,13.76c2.28,5.26-1.57,11.15-7.33,11.15Z"/>
    <path class="cls-12" d="M2650.69,1439.34c-.03,2.35-.13,4.56-.26,6.53-.98,13.03-14.07,23.84-14.07,23.84h-30.54c.5-2.91.78-5.93.78-9.04,0-7.79-1.61-15.1-4.35-21.33-5.4-12.11-15.17-20.22-26.35-20.22s-21,8.11-26.4,20.22c-2.74,6.23-4.35,13.54-4.35,21.33,0,3.12.24,6.13.75,9.04h-110v-283.41h88.3l.42,52.81s1.49,7.92,4.5,14.99c2.7,6.32,6.29,14.73,10.19,23.88,8.04,18.77,17.43,40.68,23.3,54.17,2.94,6.83,5.02,11.48,5.55,12.49,1.65,3.14,26.15,16.42,46.86,28.21,5.17,2.94,10.11,5.78,14.38,8.35,6.1,3.67,10.87,6.77,13.12,8.81,5.65,5.09,8.47,31.55,8.17,49.32Z"/>
    <polygon class="cls-14" points="2788.45 1378.64 2627.32 1378.64 2568.49 1332.36 2568.16 1332.13 2730.69 1332.13 2776.97 1369.36 2788.45 1378.64"/>
    <path class="cls-17" d="M2648.19,1405.83l-14.57-1.44c-5.09-.5-9.21-4.32-10.11-9.34l-3.35-18.42c-.07-.3-.1-.57-.07-.87,10.38,5.96,19.12,11.28,22.43,14.26,2.41,2.18,4.32,8.2,5.66,15.81Z"/>
    <path class="cls-14" d="M2692.47,1239.11h-167.86s-.65-10.74-4.86-23.01c-3.75-10.83-10.23-22.92-21.57-29.81h137.17c22.36,0,42.17,11.94,50.04,29.81.37.74.69,1.48.97,2.22,2.36,6.2,4.49,13.15,6.11,20.79Z"/>
    <path class="cls-5" d="M2648.22,1405.83l-14.6-1.44c-5.09-.5-9.21-4.32-10.11-9.34l-3.35-18.42c-.07-.3-.1-.6-.07-.9,10.38,5.99,19.12,11.32,22.43,14.3,2.41,2.18,4.32,8.2,5.69,15.81Z"/>
    <path class="cls-8" d="M2806.13,1442.86c.03,14.83-12.56,26.85-28.09,26.85h-172.21c.5-2.91.77-5.93.77-9.04,0-7.8-1.61-15.1-4.35-21.33h203.86c.03,1.17.03,2.34.03,3.52Z"/>
    <path class="cls-8" d="M2545.15,1460.67c0,3.11.23,6.13.74,9.04h-110v-30.37h113.62c-2.75,6.23-4.35,13.53-4.35,21.33Z"/>
    <path class="cls-8" d="M2692.69,1379.95h65.89c2.1,0,3.71,2.84,3.39,5.98l-2.34,22.9c-.34,3.37-2.26,5.85-4.51,5.85h-54.28c-3.48,0-6.55-3.44-7.56-8.48l-3.91-19.47c-.68-3.38.99-6.79,3.33-6.79Z"/>
    <path class="cls-10" d="M2715.32,1307.21c-77.72-3.98-130.29-45.57-146.16-59.87h114.75c3.15,0,6.03,1.88,7.3,4.79l24.11,55.08Z"/>
    <rect class="cls-14" x="2173" y="1186.29" width="293.98" height="283.45"/>
    <path class="cls-12" d="M2692.47,1239.11h-167.86s-.65-10.74-4.86-23.01h165.64c.37.74.69,1.48.97,2.22,2.36,6.2,4.49,13.15,6.11,20.79Z"/>
    <path class="cls-8" d="M2798.87,1393.24c-.94,1.54-2.14,2.55-3.45,2.78l-22.6,4.19c-1.91.37-3.38-2.95-2.88-6.36l2.21-15.2.07-.37.43-3.11c.4-2.68,1.57-4.72,3.01-5.29l1.31-.5,11.48,9.28s5.53,5.66,10.41,14.6Z"/>
    <rect class="cls-2" x="2173.01" y="1372.85" width="469.51" height="23.89"/>
    <rect class="cls-2" x="2173" y="1235.4" width="293.98" height="23.88"/>
    <g>
      <path class="cls-2" d="M2278.15,1315.54c0-23.11,18.73-41.84,41.84-41.84s41.85,18.73,41.85,41.84-18.74,41.85-41.85,41.85-41.84-18.74-41.84-41.85Z"/>
      <g>
        <path class="cls-14" d="M2319.99,1352.58c-9.9,0-19.2-3.85-26.2-10.85s-10.85-16.3-10.85-26.2,3.85-19.2,10.85-26.2c7-7,16.3-10.85,26.2-10.85s19.2,3.85,26.2,10.85c7,7,10.85,16.3,10.85,26.2s-3.85,19.2-10.85,26.2c-7,7-16.3,10.85-26.2,10.85ZM2319.99,1281.9c-8.99,0-17.43,3.5-23.79,9.85-6.35,6.35-9.85,14.8-9.85,23.79s3.5,17.43,9.85,23.79c6.35,6.35,14.8,9.85,23.79,9.85s17.43-3.5,23.79-9.85c6.35-6.35,9.85-14.8,9.85-23.79s-3.5-17.43-9.85-23.79c-6.35-6.35-14.8-9.85-23.79-9.85Z"/>
        <polygon class="cls-14" points="2343.92 1309.49 2326.03 1309.49 2326.03 1291.61 2313.95 1291.61 2313.95 1309.49 2296.06 1309.49 2296.06 1321.58 2313.95 1321.58 2313.95 1339.46 2326.03 1339.46 2326.03 1321.58 2343.92 1321.58 2343.92 1309.49"/>
      </g>
    </g>
    <path class="cls-8" d="M2675.84,1408.57l-27.62-2.75h-.03l-14.57-1.44c-5.09-.5-9.21-4.32-10.11-9.34l-3.35-18.42c-.07-.3-.1-.57-.07-.87v-.03c-.17-3.88,3.38-7.03,7.37-6.23l43.03,8.74c2.75.57,4.92,2.61,5.66,5.29l5.06,18.69c.94,3.42-1.84,6.73-5.36,6.36Z"/>
    <path class="cls-13" d="M2525.18,1260.81l28.96,71.33h-49.69s-10.19-1.71-11.5-22.54c-1.4-22.24-1.39-60.61-1.39-60.61l21.81-.1c8.31,1.26,9.62,5.82,11.81,11.93Z"/>
    <path class="cls-8" d="M2539.4,1295.51s2.51,28.83-11.72,36.72h26.59l-14.87-36.72Z"/>
    <path class="cls-8" d="M2543.3,1314.81s-6-4.27-6.52-7.81v20.16h7.86l-1.34-12.35Z"/>
    <path class="cls-8" d="M2536.78,1306.98v22.23c0,1.98-.47,3.88-1.31,5.56-2.04,4.09-6.29,6.9-11.15,6.9h-3.99c-6.83,0-12.46-5.59-12.46-12.46v-22.23c0-2.34.67-4.52,1.81-6.4v-.03c2.21-3.62,6.16-6.03,10.65-6.03h3.99c6.86,0,12.46,5.63,12.46,12.46Z"/>
    <path class="cls-8" d="M2467.27,1460.67c0,3.11.43,6.13,1.36,9.04h-202.41v-30.37h209.06c-5.05,6.23-8.01,13.53-8.01,21.33Z"/>
    <path class="cls-8" d="M2374.06,1460.67c0,3.11.43,6.13,1.36,9.04h-202.41v-30.37h209.06c-5.05,6.23-8.01,13.53-8.01,21.33Z"/>
    <path class="cls-9" d="M2269.02,1469.74h-72.31c-1.53-6.53-6.13-53,34.4-53.01,36.83,0,39.54,42.4,37.91,53.01Z"/>
    <g>
      <path class="cls-8" d="M2219.35,1459.6c0,16.87,8.7,35.48,8.7,35.48h14.73c12.94,0,23.43-15.88,23.43-35.48s-25.22-35.48-38.16-35.48-8.7,15.88-8.7,35.48Z"/>
      <path class="cls-11" d="M2204.62,1459.6c0,19.59,10.49,35.48,23.43,35.48s23.43-15.88,23.43-35.48-10.49-35.48-23.43-35.48-23.43,15.88-23.43,35.48Z"/>
      <path class="cls-10" d="M2210.69,1459.6c0,14.76,7.9,26.72,17.65,26.72s17.65-11.96,17.65-26.72-7.9-26.72-17.65-26.72-17.65,11.96-17.65,26.72Z"/>
    </g>
  </g>
  <path class="cls-16" d="M542.19,1487.69h2308.07c1.86,0,3.37,1.51,3.37,3.37v1.15c0,1.86-1.51,3.37-3.37,3.37H542.19c-1.86,0-3.37-1.51-3.37-3.37v-1.15c0-1.86,1.51-3.37,3.37-3.37Z"/>
  <rect class="cls-6" x="-1629.99" y="2069.32" width="245.33" height="362.67"/>
  <rect class="cls-3" x="-1629.99" y="2512.37" width="245.33" height="362.67"/>
</svg>